<svg width="59" height="62" viewBox="0 0 59 62" fill="none" xmlns="http://www.w3.org/2000/svg">
<g clip-path="url(#clip0_5449_2021)">
<path d="M18.9157 61.9993C17.482 61.482 16.9013 60.4362 17.0009 58.9423C17.0396 58.3681 16.9843 57.7883 17.0147 57.2141C17.0368 56.7855 16.9193 56.5802 16.4672 56.4429C11.2178 54.852 7.03012 51.7798 3.95262 47.2275C1.30232 43.3078 -0.011077 38.9609 -1.67627e-05 34.2186C0.00413081 32.2352 -0.00416434 30.2517 0.00274829 28.2683C0.00827838 26.5498 0.933187 25.6288 2.6489 25.6288C12.2561 25.6274 21.8646 25.6232 31.4718 25.6385C32.0552 25.6399 32.5004 25.504 32.9497 25.1045C36.7654 21.7077 40.6075 18.3386 44.4274 14.9459C44.621 14.7739 44.7716 14.4577 44.7924 14.1969C45.0896 10.5172 47.3791 8.05935 51.0068 7.55863C54.6028 7.06208 58.3107 10.1413 58.496 13.7753C58.7089 17.978 55.9977 21.0239 51.7976 21.3082C51.629 21.3193 51.4105 21.3651 51.3082 21.4788C50.1193 22.809 48.9483 24.1558 47.6597 25.6274C48.6662 25.6274 49.5054 25.6274 50.3446 25.6274C51.6317 25.6274 52.9189 25.6177 54.206 25.6302C55.7212 25.6454 56.7097 26.633 56.6973 28.1573C56.6724 30.9453 56.7747 33.747 56.5438 36.5197C56.0544 42.4173 53.4926 47.3565 49.1833 51.3803C46.8496 53.5593 44.1537 55.1544 41.1342 56.178C40.6697 56.3361 40.4637 56.5372 40.501 57.0463C40.5467 57.6663 40.4761 58.2932 40.519 58.9132C40.6213 60.4001 40.0683 61.4612 38.6415 61.9993C32.0649 61.9993 25.4896 61.9993 18.9157 61.9993ZM54.0498 38.3658C36.8913 38.3658 19.7811 38.3658 2.66825 38.3658C2.66825 38.4754 2.65581 38.5462 2.66964 38.6113C4.7296 48.2969 13.2086 55.1974 23.0881 55.221C26.5818 55.2293 30.0754 55.2778 33.5677 55.2113C40.949 55.0712 46.7805 51.9476 50.9806 45.8461C52.5331 43.5921 53.5327 41.0858 54.0498 38.3658ZM54.4078 32.8621C37.0115 32.8621 19.6291 32.8621 2.23276 32.8621C2.23276 33.704 2.25212 34.4877 2.22723 35.2714C2.20649 35.9205 2.45258 36.1105 3.11619 36.1091C19.9415 36.0897 36.7682 36.0939 53.5935 36.0939C53.8382 36.0939 54.0843 36.0939 54.4078 36.0939C54.4078 34.9732 54.4078 33.944 54.4078 32.8621ZM2.27147 27.8938C2.27147 28.8009 2.27147 29.6595 2.27147 30.5472C19.665 30.5472 37.0433 30.5472 54.488 30.5472C54.488 29.9605 54.488 29.4126 54.488 28.8647C54.488 27.8938 54.488 27.8938 53.5313 27.8938C36.7364 27.8938 19.9415 27.8938 3.14661 27.8938C2.87149 27.8938 2.59775 27.8938 2.27147 27.8938ZM35.8018 25.5789C36.0134 25.6052 36.0949 25.6246 36.1765 25.6246C38.8876 25.626 41.5988 25.6371 44.3085 25.6094C44.5546 25.6066 44.856 25.4041 45.0329 25.2057C46.656 23.3846 48.2653 21.5523 49.858 19.7048C50.2672 19.2304 50.7082 19.0168 51.3525 19.0571C53.9571 19.2235 56.2065 17.1985 56.2978 14.6491C56.3945 11.9805 54.3788 9.82642 51.7451 9.78203C49.0948 9.73626 46.9878 11.8043 47.0583 14.4813C47.0805 15.3385 46.786 15.8919 46.1652 16.4328C42.937 19.2402 39.7365 22.0794 36.5277 24.9089C36.312 25.0976 36.106 25.2973 35.8018 25.5789ZM38.224 57.4749C31.8796 57.4749 25.614 57.4749 19.2613 57.4749C19.2613 58.0103 19.2986 58.5138 19.2516 59.0089C19.195 59.6206 19.4175 59.7857 20.0245 59.7843C25.8629 59.7621 31.7013 59.7718 37.5383 59.769C37.7595 59.769 37.9793 59.7468 38.2226 59.7329C38.224 58.9465 38.224 58.2377 38.224 57.4749Z" fill="#5B5B5B"/>
<path d="M13.1119 6.3062C13.0704 6.78611 12.816 7.18696 12.2492 7.32705C10.0053 7.8777 9.05279 8.95681 8.86062 11.1844C8.78458 12.0679 8.4348 12.4785 7.75736 12.4798C7.06057 12.4826 6.72047 12.0513 6.63613 11.1289C6.52 9.86947 6.10939 8.71269 5.04761 7.96647C4.5665 7.62942 3.92224 7.5032 3.33328 7.34924C2.73327 7.19251 2.40146 6.8305 2.3987 6.23962C2.39593 5.66956 2.74433 5.29229 3.29319 5.15774C5.58265 4.60155 6.46608 3.55851 6.64028 1.14508C6.68038 0.595821 6.92923 0.222712 7.43938 0.0590427C7.93018 -0.0976911 8.36844 0.0618167 8.64218 0.487633C8.78043 0.704009 8.82605 1.00083 8.85094 1.26714C8.95601 2.3726 9.27261 3.38651 10.0551 4.20763C10.5819 4.75967 11.2068 5.09117 11.9865 5.13833C12.6556 5.17855 13.0925 5.63349 13.1119 6.3062ZM7.74907 7.54204C8.15276 7.09264 8.52466 6.67654 8.909 6.24933C8.5219 5.82074 8.14723 5.40602 7.75183 4.96911C7.35643 5.40602 6.98177 5.82213 6.59604 6.24795C6.97347 6.67099 7.33293 7.07461 7.74907 7.54204Z" fill="#5B5B5B"/>
<path d="M29.2999 18.0092C29.2473 18.6236 28.9225 18.9898 28.3211 19.0855C26.4795 19.3782 25.2574 20.7 25.1108 22.5697C25.0942 22.7764 25.1025 22.9872 25.068 23.1897C24.9629 23.8236 24.5357 24.2106 23.9606 24.2133C23.3785 24.2161 22.9569 23.8444 22.8463 23.2022C22.7647 22.7278 22.7744 22.2257 22.6278 21.7749C22.1481 20.2992 21.302 19.2103 19.6015 19.08C18.9849 19.0328 18.5991 18.557 18.6213 17.9551C18.6448 17.3365 18.978 16.9162 19.5849 16.8982C21.4499 16.8385 22.6168 15.0077 22.7868 13.4639C22.8172 13.1893 22.8172 12.9091 22.8781 12.6414C23.0039 12.081 23.3592 11.762 23.9467 11.7579C24.5371 11.7537 24.9021 12.0713 25.0265 12.6289C25.1067 12.9854 25.0804 13.3654 25.1482 13.7247C25.4966 15.55 26.5238 16.5445 28.3764 16.894C28.9833 17.0077 29.2736 17.4044 29.2999 18.0092ZM23.955 19.2714C24.3532 18.8275 24.7417 18.3962 25.1219 17.9731C24.7071 17.5209 24.3283 17.1076 23.9523 16.697C23.5583 17.1353 23.1808 17.5528 22.7951 17.9814C23.1712 18.4017 23.5348 18.8053 23.955 19.2714Z" fill="#5B5B5B"/>
</g>
<defs>
<clipPath id="clip0_5449_2021">
<rect width="58.507" height="62" fill="white"/>
</clipPath>
</defs>
</svg>
