<svg width="20" height="20" viewBox="0 0 20 20" fill="none" xmlns="http://www.w3.org/2000/svg">
<g clip-path="url(#clip0_4374_3471)">
<path d="M9.84663 6.85686C9.51362 7.20139 8.96438 7.21072 8.61985 6.87772C8.61983 6.87769 8.61988 6.87774 8.61985 6.87772L6.16403 4.50397V15.0649C6.16403 15.5441 5.7756 15.9325 5.29644 15.9325C4.81729 15.9325 4.42886 15.5441 4.42886 15.0649V4.50397L1.97311 6.87764C1.63423 7.21638 1.0849 7.21626 0.746162 6.87737C0.407424 6.53848 0.407545 5.98916 0.746433 5.65042C0.753388 5.64347 0.76046 5.63663 0.767647 5.62992L4.69347 1.83519C4.70796 1.82113 4.72471 1.81128 4.73993 1.7984L4.75438 1.78647C4.77325 1.77129 4.79069 1.75359 4.81047 1.74019C4.81372 1.73802 4.81745 1.73659 4.82075 1.73442C4.84426 1.71893 4.86925 1.70744 4.89384 1.69446C4.91913 1.68119 4.94373 1.66661 4.96993 1.65599C4.99686 1.64593 5.02428 1.63724 5.05209 1.62996C5.07478 1.62332 5.09681 1.61417 5.11989 1.6094L5.13121 1.60792C5.15885 1.60259 5.1867 1.60129 5.21468 1.59864C5.2401 1.5963 5.26517 1.592 5.29072 1.59183L5.29644 1.59131L5.30182 1.59183C5.3272 1.59205 5.35219 1.59617 5.37748 1.59868C5.40541 1.60129 5.43326 1.60259 5.4609 1.60788L5.47309 1.60948C5.49564 1.61417 5.51716 1.62324 5.53933 1.62974C5.56745 1.637 5.59519 1.64569 5.62244 1.65577C5.62635 1.65738 5.63073 1.65798 5.63459 1.65963C5.65628 1.66878 5.67601 1.68249 5.69697 1.69347C5.72249 1.70569 5.74736 1.71921 5.77149 1.73398C5.77514 1.73637 5.77917 1.73806 5.78277 1.74049C5.80012 1.75207 5.81487 1.76756 5.83131 1.78053C5.83903 1.7866 5.84654 1.79289 5.85404 1.79927C5.86884 1.81176 5.88515 1.82135 5.89924 1.83501L9.82524 5.62992C10.17 5.96273 10.1796 6.51197 9.8468 6.85668C9.84674 6.85674 9.84669 6.8568 9.84663 6.85686ZM18.9563 12.8359C18.6233 12.4914 18.074 12.4821 17.7295 12.8151C17.7295 12.8151 17.7295 12.8151 17.7295 12.8151L15.2737 15.1888V4.62786C15.2737 4.1487 14.8853 3.76027 14.4061 3.76027C13.9269 3.76027 13.5385 4.1487 13.5385 4.62786V15.1888L11.0828 12.8152C10.7442 12.4761 10.1949 12.4756 9.85581 12.8142C9.51672 13.1527 9.51627 13.702 9.8548 14.0411C9.86217 14.0485 9.86967 14.0557 9.8773 14.0629L13.8031 17.8576C13.8185 17.8725 13.8363 17.8832 13.8524 17.8966C13.8645 17.9067 13.8761 17.9171 13.8887 17.9266C13.9025 17.9368 13.9153 17.9485 13.9295 17.9578C13.9548 17.9733 13.9809 17.9874 14.0076 18.0001C14.0287 18.0112 14.0483 18.0245 14.0703 18.0338L14.0796 18.0371C14.1101 18.0484 14.1413 18.0579 14.173 18.0656C14.1935 18.0714 14.213 18.0797 14.2341 18.0839L14.2402 18.0851C14.3497 18.1067 14.4623 18.1067 14.5717 18.0851L14.5778 18.0839C14.599 18.0796 14.6184 18.0714 14.639 18.0656C14.6706 18.0579 14.7018 18.0484 14.7324 18.0371L14.7416 18.0338C14.7637 18.0245 14.7833 18.0112 14.8043 18.0001C14.8311 17.9874 14.8571 17.9733 14.8824 17.9578C14.8966 17.9485 14.9095 17.9368 14.9232 17.9266C14.9358 17.9171 14.9475 17.9067 14.9595 17.8966C14.9757 17.8831 14.9934 17.8724 15.0088 17.8576L18.9349 14.0629C19.2796 13.7301 19.2893 13.1808 18.9565 12.8361C18.9564 12.836 18.9563 12.836 18.9563 12.8359Z" fill="#1C3163"/>
</g>
<defs>
<clipPath id="clip0_4374_3471">
<rect width="19.6923" height="19.6923" fill="white"/>
</clipPath>
</defs>
</svg>
