<svg width="20" height="20" viewBox="0 0 20 20" fill="none" xmlns="http://www.w3.org/2000/svg">
<g clip-path="url(#clip0_4374_3457)">
<path d="M18.5172 4.48328H16.2712C15.9623 4.48328 15.7119 4.23288 15.7119 3.92401C15.7119 3.61515 15.9623 3.36475 16.2712 3.36475H18.5172C18.8261 3.36475 19.0765 3.61515 19.0765 3.92401C19.0765 4.23288 18.8261 4.48328 18.5172 4.48328Z" fill="#1C3163"/>
<path d="M12.9026 4.48328H0.559266C0.250402 4.48328 0 4.23288 0 3.92401C0 3.61515 0.250402 3.36475 0.559266 3.36475H12.9026C13.2115 3.36475 13.4619 3.61515 13.4619 3.92401C13.4619 4.23288 13.2115 4.48328 12.9026 4.48328Z" fill="#1C3163"/>
<path d="M14.5869 6.16723C13.3477 6.16746 12.343 5.16305 12.3428 3.92383C12.3425 2.68465 13.347 1.67991 14.5862 1.67969C15.8254 1.67946 16.8301 2.68387 16.8303 3.92309V3.92383C16.8289 5.16223 15.8253 6.16578 14.5869 6.16723ZM14.5869 2.79859C13.9655 2.79837 13.4615 3.30201 13.4613 3.92346C13.4611 4.54492 13.9647 5.04885 14.5862 5.04908C15.2076 5.0493 15.7116 4.54566 15.7118 3.92421C15.7118 3.92409 15.7118 3.92395 15.7118 3.92383C15.711 3.30286 15.2079 2.79964 14.5869 2.79859Z" fill="#1C3163"/>
<path d="M18.5085 10.098H6.16473C5.85587 10.098 5.60547 9.84762 5.60547 9.53876C5.60547 9.22989 5.85587 8.97949 6.16473 8.97949H18.5085C18.8173 8.97949 19.0677 9.22989 19.0677 9.53876C19.0677 9.84762 18.8173 10.098 18.5085 10.098Z" fill="#1C3163"/>
<path d="M2.79633 10.098H0.559266C0.250402 10.098 0 9.84762 0 9.53876C0 9.22989 0.250402 8.97949 0.559266 8.97949H2.79633C3.10519 8.97949 3.35559 9.22989 3.35559 9.53876C3.35559 9.84762 3.10519 10.098 2.79633 10.098Z" fill="#1C3163"/>
<path d="M4.48047 11.782C3.24129 11.7822 2.23655 10.7778 2.23633 9.53858C2.2361 8.2994 3.24055 7.29466 4.47973 7.29443C5.71891 7.29421 6.72365 8.29865 6.72388 9.53783V9.53858C6.72242 10.777 5.71888 11.7805 4.48047 11.782ZM4.48047 8.41334C3.85902 8.41311 3.35508 8.91675 3.35486 9.53821C3.35464 10.1597 3.85827 10.6636 4.47973 10.6638C5.10119 10.664 5.60512 10.1604 5.60534 9.53895C5.60534 9.53884 5.60534 9.53869 5.60534 9.53858C5.60452 8.91761 5.10145 8.41438 4.48047 8.41334Z" fill="#1C3163"/>
<path d="M18.5171 15.7123H14.0251C13.7162 15.7123 13.4658 15.4619 13.4658 15.153C13.4658 14.8442 13.7162 14.5938 14.0251 14.5938H18.5171C18.826 14.5938 19.0764 14.8442 19.0764 15.153C19.0764 15.4619 18.826 15.7123 18.5171 15.7123Z" fill="#1C3163"/>
<path d="M10.6566 15.7123H0.559266C0.250402 15.7123 0 15.4619 0 15.153C0 14.8442 0.250402 14.5938 0.559266 14.5938H10.6566C10.9655 14.5938 11.2159 14.8442 11.2159 15.153C11.2159 15.4619 10.9655 15.7123 10.6566 15.7123Z" fill="#1C3163"/>
<path d="M12.3414 17.3967C11.1022 17.3967 10.0977 16.3922 10.0977 15.153C10.0977 13.9137 11.1022 12.9092 12.3414 12.9092C13.5806 12.9092 14.5852 13.9137 14.5852 15.153C14.5837 16.3916 13.58 17.3953 12.3414 17.3967ZM12.3414 14.0281C11.72 14.0281 11.2162 14.5319 11.2162 15.1533C11.2162 15.7748 11.72 16.2786 12.3414 16.2786C12.9629 16.2786 13.4667 15.7748 13.4667 15.1533C13.4667 15.1532 13.4667 15.1531 13.4667 15.153C13.4659 14.5319 12.9625 14.0287 12.3414 14.0281Z" fill="#1C3163"/>
</g>
<defs>
<clipPath id="clip0_4374_3457">
<rect width="19.0769" height="19.0769" fill="white"/>
</clipPath>
</defs>
</svg>
