<svg width="67" height="27" viewBox="0 0 67 27" fill="none" xmlns="http://www.w3.org/2000/svg">
<path d="M31.2712 12.7852V20.5357H28.8115V1.39648H35.3321C36.9847 1.39648 38.3938 1.9474 39.5468 3.04911C40.7255 4.15081 41.3147 5.49592 41.3147 7.08442C41.3147 8.7114 40.7255 10.0565 39.5468 11.1454C38.4067 12.2343 36.9976 12.7724 35.3321 12.7724H31.2712V12.7852ZM31.2712 3.75366V10.428H35.3834C36.357 10.428 37.177 10.095 37.8174 9.44159C38.4708 8.78821 38.8038 7.99402 38.8038 7.09724C38.8038 6.21329 38.4708 5.4318 37.8174 4.77855C37.1768 4.09952 36.3698 3.76648 35.3834 3.76648H31.2712V3.75366Z" fill="white"/>
<path d="M47.7458 7.00781C49.5649 7.00781 50.9998 7.49461 52.0502 8.4682C53.1007 9.4418 53.6258 10.7741 53.6258 12.4652V20.5359H51.2815V18.7169H51.179C50.167 20.2157 48.809 20.9587 47.1181 20.9587C45.6705 20.9587 44.4662 20.5359 43.4926 19.6776C42.519 18.8193 42.0322 17.756 42.0322 16.475C42.0322 15.117 42.5447 14.041 43.5696 13.2467C44.5945 12.4397 45.9652 12.0425 47.669 12.0425C49.1294 12.0425 50.3337 12.3115 51.2688 12.8495V12.2859C51.2688 11.4276 50.9358 10.7102 50.2567 10.1081C49.5777 9.50605 48.7835 9.21136 47.8739 9.21136C46.5032 9.21136 45.4143 9.78779 44.62 10.9536L42.4549 9.59569C43.6464 7.86612 45.4143 7.00781 47.7458 7.00781ZM44.5688 16.5133C44.5688 17.1539 44.8379 17.692 45.3886 18.1146C45.9267 18.5374 46.5673 18.7552 47.2975 18.7552C48.3352 18.7552 49.2575 18.3709 50.0646 17.6022C50.8718 16.8335 51.2816 15.9367 51.2816 14.8992C50.513 14.2971 49.4497 13.9896 48.079 13.9896C47.0797 13.9896 46.2471 14.233 45.5809 14.7069C44.9018 15.2065 44.5688 15.8088 44.5688 16.5133Z" fill="white"/>
<path d="M66.9998 7.43042L58.801 26.2878H56.2644L59.3133 19.6902L53.9072 7.43042H56.5846L60.4791 16.8335H60.5304L64.3223 7.43042H66.9998Z" fill="white"/>
<path d="M21.2827 8.91479H10.9727V13.1423L16.9104 13.1436C16.6696 14.5503 15.8945 15.7493 14.707 16.5487V16.5495C14.7074 16.5493 14.7079 16.549 14.7083 16.5487L14.6014 19.0755L18.2428 19.2902C18.2423 19.2906 18.2418 19.2912 18.2414 19.2916C20.3052 17.3815 21.4877 14.558 21.4877 11.2221C21.4876 10.4201 21.4159 9.65271 21.2827 8.91479Z" fill="#0085F7"/>
<path d="M14.7083 16.5491C14.7079 16.5493 14.7073 16.5496 14.7069 16.5498C13.7233 17.2129 12.4567 17.6008 10.9752 17.6008C8.11202 17.6008 5.68314 15.6715 4.81332 13.0709H4.81293C4.81306 13.0713 4.81319 13.0719 4.81332 13.0723L1.77332 12.5908L1.16797 15.9004C2.97448 19.4844 6.6867 21.9436 10.9754 21.9436C13.9389 21.9436 16.4288 20.9692 18.2415 19.2917C18.242 19.2913 18.2425 19.291 18.2429 19.2904L14.7083 16.5491Z" fill="#00A94B"/>
<path d="M4.46963 10.9725C4.46963 10.2423 4.59133 9.53643 4.81301 8.87285L3.86376 6.04419H1.167C0.42019 7.52643 0 9.19947 0 10.9725C0 12.7455 0.421498 14.4185 1.167 15.9008L1.16753 15.9004L4.81301 13.0721C4.81288 13.0717 4.81275 13.0713 4.81262 13.0708C4.5912 12.4078 4.46963 11.7023 4.46963 10.9725Z" fill="#FFBB00"/>
<path d="M10.9749 0.000244141C6.68717 0.000244141 2.97338 2.45988 1.16699 6.04438L4.81287 8.87304C5.68269 6.27247 8.11157 4.34321 10.9748 4.34321C12.5927 4.34321 14.0417 4.90054 15.1857 5.98942L18.318 2.85979C16.4156 1.08782 13.9355 0.000244141 10.9749 0.000244141Z" fill="#FF4031"/>
</svg>
