<svg width="318" height="49" viewBox="0 0 318 49" fill="none" xmlns="http://www.w3.org/2000/svg">
<g clip-path="url(#clip0_4425_5909)">
<path d="M62.2492 32.0501C63.0237 32.5022 63.6292 32.1955 64.1128 31.8299C65.0642 31.1143 65.9528 30.3202 66.8334 29.5181C67.203 29.1839 67.4625 28.7357 67.8085 28.3701C68.0168 28.1499 68.2803 27.8511 68.5437 27.8236C70.1242 27.6467 70.3286 26.2549 70.9026 25.2091C71.0796 24.8906 70.765 24.4699 70.3601 24.3756C69.9315 24.2773 69.4912 24.234 69.0705 24.12C68.7324 24.0296 68.5712 23.7465 68.5673 23.4084C68.5594 22.9877 68.7717 22.6614 69.1845 22.5788C69.6091 22.4923 70.0574 22.4963 70.4938 22.4845C71.1228 22.4687 71.7519 22.4609 72.3809 22.4766C72.9982 22.4923 73.4739 22.2446 73.8474 21.7689C73.926 21.6706 74.0086 21.5723 74.0833 21.4741C76.4737 18.3956 78.8602 15.3172 81.2506 12.2387C81.4433 11.991 81.6241 11.7315 81.8364 11.5035C82.1863 11.1339 82.6778 11.0907 83.012 11.3856C83.3422 11.6804 83.3501 12.0461 83.1496 12.4078C83.0002 12.683 82.8154 12.9385 82.6188 13.1862C81.1288 15.0498 79.6269 16.9095 78.1407 18.777C77.6729 19.3667 77.2247 19.9722 76.7922 20.5894C76.6507 20.79 76.5602 21.0337 76.5013 21.2735C76.4619 21.4465 76.5209 21.6392 76.5406 21.9301C76.859 22.0402 77.1932 22.2407 77.5353 22.2564C78.4749 22.2958 79.4185 22.2643 80.3582 22.2486C80.9243 22.2407 81.4865 22.1739 82.0487 22.1975C82.5952 22.2211 82.9176 22.5552 82.9216 22.9956C82.9255 23.4084 82.611 23.7465 82.0684 23.8369C81.6988 23.8999 81.3175 23.9195 80.944 23.9313C79.2455 23.9824 77.5471 24.0925 75.8525 24.0453C74.6534 24.0139 73.8671 24.4896 73.1319 25.3899C71.2408 27.6939 69.7939 30.2612 68.469 32.9032C68.1898 33.4576 67.9972 34.0709 67.8832 34.6803C67.718 35.5689 68.2134 36.1468 69.1059 36.1979C70.1989 36.2608 71.2644 36.0839 72.1608 35.4391C73.5879 34.413 74.9797 33.3357 76.3519 32.2388C76.6821 31.9754 76.918 31.5665 77.1264 31.189C78.9467 27.9258 81.573 25.445 84.6593 23.4084C86.1494 22.4255 87.8007 21.8161 89.5502 21.5252C90.2108 21.4151 90.946 21.4426 91.5868 21.6195C93.5448 22.1503 94.2682 24.5761 92.959 26.1448C92.7978 26.3414 92.4125 26.4397 92.1372 26.4279C91.7913 26.4161 91.5357 25.9404 91.5829 25.5669C91.5986 25.445 91.6222 25.3192 91.6615 25.2012C91.7205 25.0243 91.8227 24.8552 91.862 24.6744C92.0429 23.8684 91.6655 23.2983 90.8359 23.2472C90.2776 23.2118 89.6997 23.2511 89.1571 23.373C87.8597 23.66 86.6055 24.1279 85.5361 24.9142C84.274 25.8421 83.0946 26.88 81.8797 27.8786C81.7342 27.9966 81.5455 28.1224 81.4983 28.2836C80.9951 29.982 79.6583 31.0986 78.6047 32.4039C78.0582 33.0841 77.9009 33.8704 77.7751 34.6724C77.6768 35.2858 78.243 35.8047 78.8406 35.62C79.4342 35.4352 80.0515 35.2111 80.539 34.8454C81.9465 33.7918 83.3108 32.6791 84.6554 31.5429C85.8545 30.5285 86.9947 29.4434 88.182 28.4133C88.5595 28.087 88.9644 27.7646 89.4126 27.5641C89.6328 27.4658 90.0692 27.5602 90.2422 27.7332C90.4191 27.9101 90.5096 28.3347 90.4231 28.5706C90.2776 28.9677 89.9788 29.3137 89.7114 29.6597C89.0155 30.5521 88.2685 31.4053 87.612 32.3253C87.2503 32.8285 86.9829 33.4143 86.7627 33.9962C86.5779 34.4798 86.6291 34.987 87.0694 35.3762C87.4468 35.7104 87.8911 35.7379 88.3039 35.5492C88.988 35.2386 89.6839 34.9241 90.2973 34.4955C92.4754 32.974 94.3743 31.1458 96.1042 29.1367C96.348 28.8537 96.5721 28.5352 96.7254 28.1971C98.475 24.3245 101.074 21.0023 103.547 17.5975C104.84 15.8165 106.055 13.9765 107.408 12.2466C108.721 10.5678 110.164 8.98728 111.559 7.37139C111.764 7.13549 112.019 6.94284 112.251 6.73447C112.865 6.18011 113.584 5.94815 114.331 6.33344C115.074 6.71481 115.346 7.47754 115.279 8.25207C115.208 9.05411 115.015 9.86796 114.752 10.6307C113.95 12.9621 112.845 15.1284 111.312 17.0824C108.898 20.157 106.366 23.1096 103.393 25.6612C102.198 26.6874 100.975 27.686 99.5444 28.3583C98.3649 28.9126 97.6651 29.8051 97.3506 31.0278C97.0714 32.1208 96.7844 33.2138 96.5957 34.3265C96.4699 35.0774 97.0282 35.561 97.7594 35.3369C98.4081 35.1403 99.0647 34.8572 99.623 34.4759C101.605 33.1273 103.401 31.5586 104.954 29.7226C105.434 29.1564 106.012 28.661 106.598 28.205C106.912 27.9612 107.337 28.0359 107.624 28.3544C107.923 28.6846 107.86 29.0581 107.592 29.3726C105.454 31.8614 103.146 34.1692 100.39 35.9777C99.7174 36.422 98.9232 36.6894 98.1723 37.0078C97.5707 37.2634 96.9495 37.2476 96.3362 37.0078C95.4988 36.6776 94.9837 36.1036 94.9562 35.1757C94.9365 34.5663 94.9523 33.953 94.9523 33.375C94.4726 33.2256 94.2839 33.5323 94.048 33.7092C92.8921 34.5781 91.7598 35.4745 90.5882 36.3237C89.9277 36.8073 89.1964 37.1729 88.359 37.283C86.8964 37.4718 85.9371 37.0118 85.2176 35.7418C85.0053 35.3683 84.8205 34.9791 84.561 34.4877C84.105 34.6567 83.6804 34.7471 83.3344 34.9634C82.5363 35.4627 81.7893 36.0446 80.999 36.5596C80.193 37.0825 79.3242 37.3853 78.3334 37.342C77.433 37.3027 76.7568 36.9646 76.3519 36.1507C76.1867 35.8165 76.0727 35.4627 75.9154 35.0617C75.0308 35.3054 74.4293 35.9856 73.7177 36.4731C72.4399 37.342 71.0599 37.8964 69.5148 37.9829C69.0823 38.0064 68.6223 37.9868 68.2134 37.8649C66.8531 37.46 66.0904 36.2844 66.224 34.8336C66.2869 34.1692 66.4245 33.5087 66.5543 32.6909C65.9921 33.0251 65.5793 33.3003 65.1389 33.5205C64.5767 33.7996 64.0145 34.1142 63.4129 34.2596C61.687 34.6842 60.1576 35.3644 58.8248 36.6265C57.7593 37.6369 56.3046 37.9632 54.7988 37.9711C53.5682 37.9789 52.5892 37.5976 51.8973 36.5557C51.7321 36.308 51.5395 36.076 51.3626 35.8441C49.7978 36.5518 48.3195 37.2398 46.8255 37.8924C45.9173 38.2895 45.304 38.954 44.785 39.7757C43.7471 41.423 42.7052 43.0704 41.5965 44.6705C40.4209 46.3611 38.8168 47.5642 36.9061 48.323C36.45 48.5038 35.935 48.6257 35.4435 48.6257C33.7097 48.6257 32.6914 46.9194 33.6035 45.449C34.091 44.6627 34.7397 43.9196 35.4671 43.3456C37.0437 42.1071 38.5416 40.7704 40.3383 39.8032C41.6594 39.0916 42.8428 38.1244 44.093 37.283C44.6906 36.882 45.1113 36.3394 45.3433 35.675C45.4101 35.4824 45.3394 35.1796 45.2253 34.9909C45.0445 34.6921 44.7299 34.6213 44.4076 34.7943C44.0183 34.9988 43.6409 35.2268 43.2595 35.443C42.8231 35.6947 42.4064 35.9777 41.9503 36.19C40.1378 37.0353 38.9819 36.5006 38.3883 34.5781C38.3411 34.4248 38.2585 34.2832 38.1445 34.0237C37.7474 34.3658 37.4329 34.6607 37.0948 34.9241C36.3517 35.502 35.6126 36.0918 34.842 36.6304C33.6035 37.4953 32.2039 37.7627 30.7177 37.6369C29.0979 37.5032 28.3666 36.5242 28.7165 34.9555C29.1883 32.8246 30.2066 30.9649 31.5355 29.2586C32.2274 28.3701 32.9037 27.4737 33.4974 26.6952C33.5052 25.8381 32.9469 25.5551 32.542 25.1933C31.7439 24.4778 31.3625 24.5171 30.6863 25.3663C28.6104 27.9691 26.5502 30.5875 24.4743 33.1863C24.203 33.5284 23.8924 33.8429 23.5583 34.126C21.0931 36.2018 18.4 37.916 15.4631 39.2606C13.34 40.2357 11.1265 40.5227 8.84226 40.3025C8.17389 40.2396 7.47799 40.0312 6.87646 39.7285C4.88313 38.7299 3.20434 37.3145 1.82042 35.5649C0.904351 34.409 0.357858 33.0959 0.173073 31.6176C-0.381284 27.2221 0.432558 23.0899 2.67751 19.2841C5.66159 14.2281 9.62072 10.0331 14.4487 6.71088C18.915 3.63636 23.9239 2.14235 29.3652 2.18953C30.1752 2.1974 30.9929 2.31928 31.795 2.46081C33.6271 2.78321 34.8184 3.89585 35.4907 5.59823C35.6283 5.94815 35.7109 6.31772 35.8249 6.67549C36.1079 7.56404 36.7449 8.00044 37.6452 8.05549C38.2114 8.09087 38.7775 8.07121 39.3437 8.08694C39.784 8.09873 40.2243 8.10267 40.6607 8.1695C41.1207 8.23634 41.4549 8.68061 41.4235 9.10522C41.392 9.53377 41.0421 9.91907 40.59 9.9977C40.4052 10.0292 40.2125 10.0292 40.0278 10.037C39.3987 10.0645 38.7696 10.1392 38.1445 10.1039C36.3832 10.0056 35.1919 10.6936 34.3741 12.3173C32.6874 15.671 30.0533 18.1479 26.8136 20.0115C25.701 20.6523 24.5333 21.0848 23.2516 21.1084C22.0092 21.1359 20.8219 20.8607 20.1456 19.7009C19.4026 18.4231 19.2925 17.0353 20.1456 15.7693C20.6646 14.9987 21.333 14.3028 22.0328 13.6855C23.173 12.6869 24.4783 11.9124 25.8897 11.3502C27.7572 10.6071 29.6483 9.92693 31.5276 9.21924C31.7635 9.12881 31.9994 9.05018 32.2353 8.95582C33.5327 8.43685 33.9927 7.336 33.3951 6.07789C32.8526 4.93772 31.8539 4.39516 30.6548 4.39123C28.8345 4.38337 26.9945 4.35192 25.2017 4.6114C20.126 5.33875 15.813 7.74489 12.0229 11.0946C9.37303 13.43 7.07697 16.1035 5.07185 19.0168C3.05494 21.9498 2.08383 25.2287 1.85187 28.7397C1.66708 31.5508 2.60674 33.9254 4.80057 35.7536C5.28416 36.1547 5.76775 36.5596 6.25133 36.9567C8.04021 38.4311 10.0846 38.7535 12.2824 38.2148C13.0137 38.0379 13.745 37.8099 14.4251 37.4953C18.6831 35.502 22.5085 32.9229 25.5319 29.2586C27.7769 26.538 29.9157 23.7505 31.5237 20.5894C31.6338 20.3693 31.7753 20.1491 31.9562 19.984C32.251 19.7127 32.6049 19.6105 32.9862 19.8346C33.3676 20.0547 33.4777 20.3968 33.3755 20.7978C33.3165 21.0376 33.1789 21.2578 33.0885 21.4937C32.6639 22.5946 32.9941 23.4556 33.9298 24.12C34.2876 24.3756 34.6532 24.6154 35.0189 24.8592C35.2784 25.0361 35.5575 25.1855 35.7973 25.3821C36.3163 25.8106 36.3399 26.3374 35.872 26.8486C35.1093 27.6821 34.3033 28.4802 33.5839 29.3491C32.943 30.1236 32.3257 30.9296 31.8304 31.7984C31.3035 32.7184 30.8671 33.7053 30.5211 34.7078C30.2066 35.6082 30.7492 36.1547 31.7281 36.021C32.6796 35.8952 33.5406 35.5059 34.3269 34.9673C36.7449 33.3043 38.75 31.2323 40.2047 28.6885C41.1483 27.0373 42.312 25.5669 43.4994 24.1043C43.6527 23.9156 43.8375 23.6797 44.0537 23.6246C44.325 23.5539 44.7182 23.5421 44.9069 23.6915C45.0917 23.8409 45.2017 24.2655 45.131 24.5014C45.0288 24.8434 44.7653 25.158 44.5137 25.4292C42.9883 27.053 42.0879 29.0738 40.9871 30.961C40.5231 31.7552 40.3226 32.7145 40.0474 33.6109C39.9334 33.9766 40.012 34.3619 40.3344 34.641C40.6961 34.9516 41.046 34.7825 41.3763 34.5977C43.3775 33.4812 45.0523 31.9754 46.5346 30.2415C47.7612 28.8065 48.9761 27.3675 50.2145 25.9443C50.4976 25.6219 50.8397 25.331 51.2014 25.099C51.5906 24.8474 52.0231 24.7963 52.4202 25.1462C52.7386 25.4292 52.774 25.7595 52.4516 26.3335C51.5867 27.8668 50.7021 29.3844 49.8371 30.9178C49.4361 31.6294 49.0586 32.3567 48.6891 33.0801C48.5475 33.3593 48.3628 33.6581 48.3549 33.949C48.347 34.2203 48.4886 34.5584 48.6773 34.7589C48.811 34.9005 49.1845 34.9752 49.3614 34.8926C50.3286 34.4326 51.2328 33.9294 51.5592 32.7381C51.7872 31.9046 52.2197 31.1222 52.6285 30.3477C52.9549 29.7265 53.3991 29.2272 54.2169 29.1918C54.9128 29.1603 55.2745 28.5706 55.6873 28.1027C57.8969 25.6022 60.0357 23.0506 61.8088 20.2159C62.0723 19.7913 62.3711 19.3667 62.7367 19.0404C62.9176 18.8792 63.3304 18.832 63.5781 18.9106C63.9594 19.0325 64.156 19.4139 64.0734 19.8188C64.0145 20.1137 63.8061 20.3771 63.7039 20.6681C63.4365 21.4347 63.0591 22.1896 62.9608 22.9799C62.6266 25.5983 62.3868 28.2246 62.1391 30.8549C62.0959 31.2755 62.2138 31.7041 62.2492 32.0501ZM113.132 10.1864C112.947 9.95052 112.806 9.66744 112.574 9.49445C112.279 9.27428 111.964 9.43941 111.736 9.66744C111.426 9.97804 111.131 10.3044 110.871 10.6543C108.107 14.3775 105.351 18.1047 102.603 21.8397C102.418 22.0874 102.241 22.3705 102.179 22.6653C102.135 22.8698 102.226 23.1804 102.371 23.3258C102.521 23.4752 102.867 23.5971 103.032 23.5224C103.421 23.3494 103.791 23.0899 104.101 22.799C106.704 20.33 108.996 17.5896 111.021 14.6331C111.725 13.6069 112.216 12.4392 112.778 11.3187C112.935 10.9963 112.998 10.6189 113.132 10.1864ZM23.7863 19.0011C24.2345 18.8438 24.9736 18.6708 25.6341 18.3406C27.5646 17.3734 29.1922 16.0052 30.5683 14.3421C30.7649 14.1023 30.9575 13.8467 31.0912 13.5676C31.449 12.8245 30.8592 11.9714 30.0336 12.0264C29.8488 12.0382 29.668 12.0972 29.4871 12.1522C27.3758 12.8088 25.4297 13.831 23.5858 15.0184C22.9803 15.4076 22.5125 16.0563 22.076 16.6539C21.3526 17.6525 22.1468 18.9618 23.7863 19.0011ZM56.3007 31.307C57.028 32.1916 57.9519 32.6398 59.0292 32.7971C59.6347 32.8875 60.0357 32.6595 60.1615 32.0815C60.5193 30.4302 60.7827 28.7593 60.7198 27.0609C60.7119 26.8761 60.6647 26.6874 60.6058 26.5144C60.4957 26.1959 59.8745 25.96 59.6543 26.1998C58.8955 27.0255 58.1839 27.8904 57.4566 28.7397C57.4487 29.7304 56.7056 30.4185 56.3007 31.307ZM54.9207 32.6319C54.3978 33.0998 53.9417 33.5126 53.4817 33.9215C53.0571 34.2989 52.9824 34.7511 53.1711 35.2661C53.3834 35.8519 53.8002 36.19 54.4214 36.2018C55.4868 36.2215 56.5208 36.0524 57.4644 35.5138C58.0699 35.1678 58.0738 34.6095 57.4526 34.2046C56.6781 33.7013 55.8839 33.2256 54.9207 32.6319ZM39.7132 42.0757C38.4787 43.0743 37.3071 44.0139 36.1512 44.9733C35.9664 45.1266 35.7698 45.3625 35.7462 45.5787C35.7187 45.8539 35.7934 46.196 35.9546 46.4122C36.0568 46.5498 36.4421 46.6127 36.6269 46.5341C38.1681 45.8815 39.4144 44.8514 40.3423 43.4517C40.6489 42.9839 40.6018 42.8895 39.7132 42.0757Z" fill="#D5B584"/>
<path d="M260.854 22.2452C261.31 22.8349 261.758 23.4168 262.206 23.9908C261.904 25.0759 261.062 25.7129 260.52 26.5385C260.04 27.2698 259.49 27.891 259.521 28.8896C259.533 29.3535 259.049 29.8882 258.684 30.2932C257.858 31.2132 257.418 32.3062 257.076 33.4581C256.985 33.7569 256.93 34.0715 256.918 34.3821C256.887 35.1055 257.579 35.5615 258.204 35.1841C259.545 34.3703 260.925 33.5997 261.986 32.4005C263.901 30.2381 266.016 28.2487 267.581 25.7876C267.817 25.418 268.112 25.0838 268.422 24.7732C268.646 24.5491 268.981 24.3879 269.264 24.6317C269.48 24.8165 269.724 25.1192 269.728 25.3708C269.735 25.7129 269.594 26.11 269.397 26.397C268.827 27.2226 268.202 28.0089 267.585 28.807C266.409 30.3246 265.65 32.031 265.202 33.8867C265.053 34.5039 264.935 35.1291 265.501 35.6677C266.622 35.9822 267.581 35.5144 268.477 34.9089C270.797 33.3441 272.794 31.4412 274.202 29.0036C275.936 25.9959 278.499 23.9476 281.613 22.5636C282.454 22.1901 283.413 22.0132 284.341 21.8992C285.356 21.7734 286.339 22.0093 287.204 22.6108C287.455 22.7878 287.742 22.9136 287.954 23.0315C288.816 22.8703 289.142 22.2255 289.515 21.6554C291.1 19.2336 292.747 16.8589 294.591 14.6336C296.313 12.5538 298.078 10.5054 299.84 8.45312C300.123 8.11893 300.453 7.8162 300.795 7.54492C301.157 7.25398 301.711 7.29723 302.002 7.60782C302.309 7.93415 302.273 8.31158 302.034 8.6379C301.401 9.49893 300.744 10.3442 300.08 11.1777C297.335 14.6139 294.544 18.0187 291.847 21.4943C289.999 23.8768 288.23 26.3262 286.516 28.8031C285.552 30.1949 284.797 31.7282 284.263 33.352C284.043 34.0203 283.854 34.7202 284.444 35.2903C285.139 35.9704 285.894 35.5812 286.519 35.1959C287.585 34.5393 288.678 33.8709 289.586 33.0217C291.886 30.879 294.088 28.6419 295.818 25.9841C296.502 24.9344 297.351 23.9948 298.133 23.0119C298.287 22.8192 298.472 22.6423 298.664 22.485C298.987 22.2216 299.399 22.2491 299.686 22.5283C300.005 22.8389 300.013 23.2084 299.797 23.5544C299.565 23.924 299.27 24.2542 298.994 24.6002C297.5 26.4638 296.038 28.3549 294.91 30.474C294.32 31.5828 293.785 32.719 293.298 33.8749C293.085 34.3742 292.849 35.0072 293.325 35.4711C293.872 35.9979 294.505 35.6716 295.075 35.4161C295.531 35.2116 296.01 35.0072 296.392 34.7005C298.157 33.2812 299.82 31.7793 301.149 29.9C302.049 28.6262 303.17 27.5057 304.235 26.3537C304.974 25.5556 305.824 25.1271 306.885 25.8898C307.042 26.0038 307.357 25.9055 307.565 25.9055C308.214 24.8322 308.784 23.7903 309.445 22.8113C310.176 21.7223 311.257 21.0854 312.511 20.759C313.636 20.4681 314.78 21.2898 314.65 22.4457C314.505 23.7431 314.249 25.0681 313.773 26.279C313.227 27.6669 312.389 28.9446 311.67 30.2657C311.462 30.651 311.19 31.0048 311.002 31.398C310.762 31.9012 311.182 32.4477 311.749 32.3651C312.114 32.3101 312.48 32.1922 312.818 32.0427C314.049 31.4963 315.063 30.6667 315.912 29.6287C316.187 29.2906 316.443 28.9211 316.773 28.6419C317.084 28.3785 317.524 28.3706 317.795 28.6891C317.964 28.8857 317.949 29.2434 318.004 29.5305C318.016 29.5816 317.972 29.6523 317.941 29.7034C316.467 31.9327 314.552 33.5839 311.867 34.1304C311.281 34.2484 310.597 34.1855 310.023 34.0007C309.256 33.753 308.682 33.9103 308.128 34.4174C307.896 34.6297 307.616 34.7909 307.392 35.0033C306.174 36.1591 304.668 36.7764 303.103 37.2757C300.854 37.9952 299.71 37.3622 299.046 34.9168C298.723 35.1212 298.405 35.2667 298.153 35.4908C297.143 36.3872 295.967 36.9415 294.678 37.3072C292.535 37.9126 291.292 36.8983 291.422 34.6297C291.434 34.4528 291.422 34.272 291.422 33.9024C291.005 34.1933 290.711 34.3939 290.424 34.5983C289.449 35.2863 288.505 36.0215 287.495 36.6467C286.976 36.9651 286.35 37.1892 285.749 37.2796C283.976 37.5391 282.867 36.7725 282.352 35.0504C282.199 34.5393 282.352 33.8277 281.593 33.698C281.019 33.5997 280.736 34.1265 280.331 34.4056C279.195 35.192 278.055 35.9704 276.883 36.6978C276.179 37.1381 275.381 37.315 274.54 37.2875C273.341 37.2482 272.503 36.7253 272.106 35.5694C272.012 35.2981 271.945 35.015 271.823 34.6062C271.151 35.1094 270.6 35.5144 270.054 35.9232C269.193 36.568 268.285 37.1342 267.219 37.3661C266.673 37.4841 266.103 37.5745 265.548 37.5509C264.514 37.5077 263.759 37.0084 263.465 35.9626C263.378 35.6598 263.339 35.3453 263.236 35.0504C263.107 34.6809 262.67 34.4646 262.317 34.618C261.915 34.7909 261.534 35.0072 261.168 35.247C260.535 35.6559 259.934 36.1198 259.293 36.5091C258.868 36.7685 258.416 37.0202 257.941 37.146C256.757 37.4566 255.833 36.9337 255.413 35.7856C255.326 35.5497 255.31 35.2903 255.228 35.0544C255.169 34.8853 255.051 34.7398 254.929 34.5236C253.962 34.9207 253.254 35.6441 252.444 36.2103C251.351 36.9808 250.215 37.6296 248.882 37.8537C248.328 37.948 247.754 38.0227 247.196 37.9834C245.493 37.8655 244.274 36.4304 244.554 34.7556C244.715 33.7805 245.049 32.8016 245.481 31.9091C246.13 30.5527 246.92 29.2592 247.675 27.9578C248.053 27.3052 248.497 26.6918 248.886 26.0471C249.621 24.8361 249.511 24.5766 248.178 24.2975C247.876 24.2346 247.542 24.1992 247.282 24.0498C247.093 23.9397 246.885 23.6527 246.901 23.464C246.928 23.1888 247.085 22.8428 247.302 22.6895C247.53 22.5283 247.891 22.5165 248.198 22.5047C249.016 22.4772 249.834 22.4614 250.651 22.4889C251.347 22.5125 251.858 22.2295 252.267 21.6948C252.421 21.4943 252.566 21.2937 252.723 21.0932C254.544 18.7697 256.368 16.4461 258.184 14.1186C258.688 13.4738 259.155 12.8054 259.655 12.1606C259.883 11.8658 260.111 11.5276 260.421 11.3468C260.646 11.217 261.043 11.2288 261.29 11.3389C261.573 11.4687 261.715 11.8225 261.573 12.1488C261.428 12.4909 261.247 12.8329 261.019 13.1199C259.616 14.8931 258.192 16.6505 256.785 18.4237C256.199 19.1628 255.601 19.8941 255.09 20.6843C254.461 21.6594 254.744 22.1941 255.951 22.2727C256.887 22.3317 257.834 22.257 258.774 22.2452C259.443 22.2373 260.131 22.2452 260.854 22.2452ZM260.307 24.0459C259.576 24.0026 259.156 23.9476 258.735 23.9554C257.17 23.983 255.601 24.0773 254.037 24.0537C252.999 24.038 252.283 24.4312 251.623 25.2175C249.629 27.5882 248.119 30.2499 246.763 33.006C246.468 33.6036 246.331 34.3113 246.264 34.9836C246.189 35.7188 246.641 36.1473 247.388 36.1985C248.615 36.285 249.747 35.9744 250.777 35.2981C252.511 34.158 254.143 32.888 255.57 31.3822C256.077 30.8475 256.553 30.2146 256.82 29.5383C257.481 27.8831 258.479 26.4599 259.568 25.0799C259.753 24.8361 259.922 24.5806 260.307 24.0459ZM286.724 24.612C286.386 23.8689 285.788 23.6881 285.155 23.6095C284.011 23.4718 282.906 23.633 281.864 24.1599C280.052 25.0759 278.479 26.3105 277.076 27.7573C276.777 28.0679 276.447 28.4296 276.337 28.8267C276.109 29.6484 275.625 30.2932 275.098 30.9026C274.284 31.8422 273.919 32.9627 273.687 34.1344C273.463 35.2549 274.092 35.8092 275.196 35.4986C275.495 35.4161 275.802 35.3178 276.073 35.1723C277.406 34.4686 278.692 33.7058 279.796 32.6522C282.116 30.4387 284.196 28.0168 286.201 25.5202C286.429 25.2411 286.567 24.8951 286.724 24.612ZM306.987 29.0036C307.019 28.9958 307.05 28.9879 307.082 28.984C307.082 28.5476 307.117 28.1072 307.074 27.6747C307.027 27.2265 306.457 26.967 306.06 27.1912C305.788 27.3445 305.533 27.5293 305.289 27.7298C303.571 29.1412 302.529 31.0677 301.373 32.9077C301.18 33.2183 301.098 33.6036 301 33.9653C300.579 35.5576 301.125 36.108 302.702 35.6598C304.235 35.2234 305.525 34.3624 306.748 33.352C307.424 32.7976 307.636 32.2079 307.447 31.3901C307.27 30.5959 307.141 29.7978 306.987 29.0036ZM308.953 28.0679C308.969 28.3667 308.973 28.5515 308.989 28.7402C309.024 29.1452 309.205 29.4715 309.602 29.5816C310.038 29.7034 310.31 29.4046 310.49 29.0665C311.104 27.9106 311.741 26.7665 312.275 25.5753C312.523 25.0209 312.602 24.3761 312.665 23.7628C312.716 23.2556 312.02 22.9175 311.576 23.1927C311.469 23.2595 311.359 23.3185 311.269 23.4011C309.901 24.7024 309.224 26.338 308.953 28.0679Z" fill="#D5B584"/>
<path d="M142.776 37.6412C139.647 37.657 136.855 37.0476 134.268 35.6086C133.993 35.4553 133.71 35.3216 133.431 35.18C132.566 34.7476 131.752 34.8262 130.942 35.357C129.999 35.9782 129.047 36.5954 128.064 37.1458C125.576 38.5337 122.945 38.7421 120.229 37.9479C119.753 37.8103 119.265 37.6255 118.849 37.3582C115.794 35.3923 113.635 31.6219 114.414 27.4898C115.353 22.4967 117.779 18.341 121.243 14.7278C122.155 13.7764 123.118 12.8682 124.14 12.0347C127.164 9.56957 130.364 7.36787 133.722 5.37455C139.423 1.98944 145.611 0.758843 152.157 1.0891C154.103 1.18739 156.034 1.50978 157.874 2.17815C158.754 2.49661 159.623 2.88977 160.417 3.38122C161.966 4.34447 163.032 5.74019 163.484 7.51727C163.854 8.97983 164.054 10.4699 163.834 11.9954C163.476 14.5116 162.25 16.4695 160.115 17.8338C158.357 18.9582 156.45 19.7524 154.41 20.2242C153.926 20.3343 153.435 20.4837 152.995 20.7039C152.464 20.9712 152.259 21.616 152.503 22.1664C152.708 22.6225 152.979 23.051 153.25 23.4717C156.148 27.9538 154.614 33.1749 150.176 35.813C147.84 37.2048 145.281 37.7041 142.776 37.6412ZM148.945 18.683C148.949 18.7381 148.953 18.7892 148.957 18.8442C150.451 18.6594 151.957 18.5454 153.435 18.2741C155.361 17.9242 157.17 17.2087 158.849 16.1747C160.374 15.2311 161.349 13.8904 161.699 12.1408C161.959 10.8395 161.935 9.52632 161.573 8.22496C161.109 6.5383 160.103 5.31557 158.514 4.61968C155.652 3.3655 152.649 2.79541 149.519 3.01558C148.642 3.07849 147.773 3.20823 146.897 3.28293C142.894 3.61319 139.147 4.74156 135.633 6.6995C131.776 8.84616 128.182 11.3663 124.801 14.1892C122.816 15.8483 121.125 17.7906 119.67 19.9372C118.282 21.9856 117.288 24.2069 116.702 26.6131C116.399 27.8515 116.317 29.0939 116.49 30.352C116.938 33.5602 119.47 36.0843 122.611 36.3123C125.033 36.4893 127.195 35.6872 129.047 34.1224C129.857 33.4383 129.932 32.7778 129.255 31.8028C127.537 29.3259 127.089 26.4912 126.865 23.5897C126.834 23.1611 126.857 22.6933 126.995 22.2922C127.077 22.0563 127.404 21.8283 127.667 21.7458C128.037 21.6317 128.45 21.7379 128.622 22.131C128.772 22.4652 128.847 22.8427 128.898 23.2122C129.051 24.2698 129.161 25.3314 129.311 26.385C129.48 27.5803 129.885 28.7008 130.49 29.7387C131.32 31.1619 132.393 31.3271 133.517 30.1437C134.551 29.0546 135.55 27.9144 136.458 26.7192C139.43 22.8151 141.97 18.6241 144.412 14.374C145.536 12.4161 146.661 10.4542 147.805 8.50411C148.025 8.1306 148.281 7.76103 148.591 7.46616C148.886 7.19095 149.283 7.2224 149.649 7.40719C150.054 7.6077 150.179 7.993 150.069 8.3547C149.904 8.88547 149.649 9.40051 149.374 9.88803C148.332 11.7516 147.266 13.5995 146.213 15.4552C145.996 15.8365 145.768 16.2179 145.619 16.6307C145.241 17.6765 145.756 18.5415 146.865 18.6673C147.557 18.742 148.257 18.683 148.945 18.683ZM142.706 35.6322C143.771 35.471 145.336 35.3216 146.857 34.9874C148.489 34.6296 149.9 33.7607 150.95 32.4633C153.372 29.4831 153.411 26.4244 150.769 23.684C149.122 21.9738 146.904 21.1678 144.62 20.6331C143.889 20.4601 143.256 20.7078 142.804 21.329C142.434 21.8362 142.065 22.3394 141.715 22.8584C139.745 25.7639 137.819 28.7008 135.412 31.2799C135.287 31.4175 135.161 31.563 135.062 31.7202C134.595 32.4554 134.689 33.1828 135.428 33.6939C135.986 34.0792 136.612 34.4016 137.248 34.6414C138.845 35.2312 140.523 35.4553 142.706 35.6322Z" fill="#D5B584"/>
<path d="M198.605 31.8147C198.082 32.1057 197.768 32.2904 197.449 32.4595C197.06 32.6639 196.679 32.8959 196.27 33.0453C194.638 33.639 193.734 33.348 192.676 31.9327C192.452 31.6339 192.232 31.3351 192.004 31.0441C191.969 31.0009 191.894 30.9852 191.768 30.9262C190.978 30.9891 190.537 31.6771 190.07 32.2157C188.611 33.9024 186.838 35.1959 185.029 36.454C184.518 36.8118 183.956 37.1027 183.39 37.3701C183.056 37.5273 182.678 37.6217 182.309 37.6649C181.684 37.7436 181.18 37.4133 181.047 36.7882C180.917 36.1788 180.885 35.5458 180.834 34.9207C180.795 34.4214 180.822 33.9142 180.756 33.4188C180.677 32.8409 180.075 32.5971 179.623 32.9667C178.554 33.8395 177.52 34.7634 176.447 35.6323C175.912 36.0648 175.342 36.4737 174.736 36.7961C174.308 37.028 173.801 37.1814 173.313 37.2285C172.228 37.3347 171.689 36.8904 171.512 35.7856C171.387 34.9954 171.328 34.1933 171.225 33.3048C170.522 33.5486 169.936 33.7491 169.35 33.9496C168.497 34.2405 167.616 34.3663 166.767 34.0125C166.008 33.694 165.434 33.9221 164.868 34.4056C164.534 34.6927 164.168 34.9443 163.846 35.2391C162.552 36.4304 160.929 36.9691 159.301 37.433C157.359 37.9873 155.88 36.7803 155.971 34.7988C156.01 33.9221 156.179 33.0728 156.553 32.2511C157.618 29.9158 159.218 28.0011 161.074 26.2751C161.805 25.5949 162.544 25.1389 163.575 25.8544C164.042 26.1807 164.428 25.8977 164.766 25.3118C165.293 24.3879 165.8 23.4483 166.409 22.5794C167.042 21.6751 167.978 21.1483 169.028 20.8298C170.443 20.4013 171.67 21.3213 171.426 22.7445C171.206 24.038 170.864 25.3236 170.423 26.5582C169.897 28.0404 169.083 29.3928 168.151 30.6746C167.86 31.0756 167.538 31.5081 167.813 32.0506C168.009 32.4398 168.615 32.491 169.358 32.1528C170.938 31.4255 172.287 30.4347 173.054 28.811C173.899 27.0221 175.149 25.5359 176.529 24.1481C176.745 23.9279 176.985 23.6606 177.26 23.5898C177.516 23.523 177.874 23.6173 178.11 23.7667C178.393 23.9436 178.467 24.3132 178.267 24.5963C177.976 25.0012 177.61 25.3512 177.28 25.7286C176.289 26.8609 175.236 27.9421 174.787 29.4558C174.65 29.9197 174.265 30.305 174.001 30.7335C173.29 31.8973 172.959 33.1515 173.12 34.5157C173.203 35.1998 173.769 35.4908 174.347 35.1055C175.979 34.0243 177.512 32.8055 178.766 31.2997C180.575 29.1294 182.564 27.0968 184.062 24.6789C184.223 24.4194 184.455 24.1835 184.703 24.0105C185.053 23.7667 185.474 23.8178 185.729 24.1245C185.898 24.3289 185.981 24.7064 185.926 24.9698C185.851 25.3276 185.592 25.6382 185.442 25.9841C184.668 27.7691 183.838 29.5344 183.158 31.3547C182.812 32.2826 182.71 33.3048 182.545 34.2916C182.497 34.5786 182.619 34.8892 182.655 35.133C183.421 35.5773 183.94 35.1841 184.455 34.8303C187.557 32.7033 190.129 30.0573 192.087 26.8452C192.739 25.7758 193.274 24.6356 193.875 23.5308C194.115 23.0905 194.347 22.6423 194.646 22.2452C194.961 21.8284 195.444 21.7498 195.814 21.9739C196.207 22.2098 196.321 22.6305 196.097 23.1259C195.943 23.4679 195.708 23.7785 195.57 24.1245C195.063 25.4062 194.516 26.68 194.119 27.9971C193.907 28.697 193.875 29.4951 193.946 30.2303C194.068 31.4727 194.78 31.8265 195.936 31.3626C196.895 30.9773 197.642 30.3207 198.33 29.5698C198.963 28.8857 199.415 28.0443 200.308 27.5804C200.642 27.4074 200.823 26.8884 201.007 26.4953C201.927 24.553 203.162 22.8113 204.408 21.0775C206.535 18.117 208.627 15.1251 210.828 12.2235C212.114 10.5251 213.585 8.96423 214.984 7.34834C215.189 7.11245 215.444 6.92373 215.68 6.71142C216.297 6.15707 217.017 5.95262 217.764 6.34185C218.436 6.69176 218.7 7.38373 218.684 8.09141C218.668 8.77158 218.542 9.47534 218.338 10.1241C217.709 12.1095 216.907 14.036 215.692 15.7305C213.235 19.1628 210.506 22.371 207.341 25.186C205.93 26.4441 204.467 27.6433 202.757 28.4729C201.778 28.9486 201.153 29.6641 200.878 30.6942C200.571 31.8462 200.233 32.9903 200.013 34.158C199.832 35.1133 200.437 35.6087 201.365 35.2981C201.955 35.1015 202.533 34.8185 203.044 34.4646C205.018 33.1043 206.822 31.5474 208.367 29.6995C208.808 29.1766 209.327 28.7127 209.85 28.2723C210.019 28.1308 210.317 28.1111 210.561 28.1072C211.009 28.1033 211.363 28.6734 211.163 29.0626C211.049 29.2828 210.907 29.4911 210.742 29.6799C208.961 31.7243 207.011 33.5918 204.868 35.2549C203.866 36.0333 202.769 36.6545 201.55 37.0005C201.031 37.146 200.422 37.1656 199.899 37.0477C198.935 36.8354 198.405 36.1434 198.369 35.1527C198.342 34.4017 198.432 33.6468 198.479 32.8959C198.507 32.6128 198.55 32.3258 198.605 31.8147ZM216.549 10.2656C216.388 10.0179 216.262 9.73089 216.05 9.53431C215.774 9.27876 215.46 9.4203 215.204 9.62474C215.012 9.782 214.835 9.96679 214.678 10.1594C213.809 11.2328 212.912 12.2825 212.098 13.3912C210.172 16.0175 208.281 18.6714 206.382 21.3252C206.091 21.7302 205.812 22.1548 205.611 22.6069C205.533 22.7878 205.596 23.1691 205.733 23.2753C205.949 23.4404 206.339 23.5741 206.559 23.4836C206.948 23.3225 207.29 23.0158 207.601 22.717C210.152 20.2833 212.405 17.5941 214.394 14.6926C215.098 13.6664 215.601 12.5027 216.168 11.3861C216.337 11.0598 216.411 10.6823 216.549 10.2656ZM157.76 35.534C159.041 35.8132 159.034 35.7935 160.178 35.3925C161.88 34.7949 163.205 33.7058 164.404 32.428C164.223 31.5945 163.999 30.8672 163.921 30.1281C163.842 29.3889 163.909 28.638 163.897 27.891C163.897 27.7691 163.838 27.6511 163.799 27.5332C163.677 27.1833 163.201 26.9867 162.867 27.1636C162.647 27.2816 162.427 27.4113 162.238 27.5765C160.461 29.1098 159.002 30.8908 158.055 33.0532C157.728 33.8002 157.465 34.5786 157.76 35.534ZM165.662 28.2566C165.682 28.4611 165.658 28.6105 165.717 28.7048C165.906 29.0076 166.063 29.3929 166.346 29.554C166.743 29.7821 167.046 29.444 167.223 29.098C167.876 27.8281 168.552 26.566 169.126 25.2607C169.342 24.7732 169.334 24.1756 169.358 23.6213C169.374 23.2674 168.847 22.9765 168.524 23.1141C168.355 23.1888 168.171 23.2635 168.041 23.3854C166.614 24.73 165.969 26.452 165.662 28.2566Z" fill="#D5B584"/>
<path d="M239.667 10.0926C238.122 10.1516 236.761 9.9825 235.421 9.58934C234.941 9.44781 234.446 9.31806 233.95 9.27875C232.822 9.18832 232.153 9.94319 232.417 11.0558C232.543 11.5945 232.759 12.1567 233.085 12.5931C233.793 13.5485 234.548 14.4763 235.377 15.3256C236.12 16.0844 237.017 16.6938 237.795 17.425C238.664 18.2389 239.537 19.0645 240.3 19.9727C243.355 23.6212 243.091 28.7756 240.26 32.3219C239.407 33.3913 238.393 34.3702 237.32 35.2273C233.25 38.4788 228.705 38.9073 224.019 36.9258C220.626 35.4908 218.184 32.9706 217.437 29.212C217.005 27.0339 217.241 24.8204 217.772 22.6659C218.161 21.0775 218.77 19.5638 219.525 18.1052C220.178 16.851 221.125 15.8563 222.187 14.9599C222.458 14.728 222.835 14.5628 223.189 14.496C223.744 14.3898 224.306 15.1644 224.019 15.644C223.767 16.0647 223.406 16.4264 223.06 16.7842C221.4 18.4944 220.288 20.5035 219.737 22.8192C219.313 24.6041 219.156 26.4127 219.325 28.2448C219.462 29.727 219.989 31.048 220.999 32.1568C224.007 35.4514 227.683 36.686 232.071 35.7345C233.195 35.4908 234.202 34.9954 235.141 34.3467C236.553 33.3755 237.736 32.1646 238.821 30.8515C240.614 28.6851 241.369 23.7235 238.432 20.7708C237.681 20.016 236.891 19.2925 236.073 18.6045C234.434 17.2245 232.853 15.7856 231.619 14.0203C231.19 13.4069 230.821 12.7425 230.514 12.0623C230.176 11.3075 230.022 10.5054 230.329 9.67977C230.773 8.48456 230.294 7.65499 229.338 6.92372C228.293 6.12167 227.298 5.24885 226.335 4.34851C225.788 3.83741 225.308 3.24373 224.88 2.62647C224.644 2.28442 224.538 1.82836 224.463 1.40374C224.428 1.19537 224.542 0.794343 224.675 0.751096C225.002 0.641011 225.434 0.574174 225.725 0.707848C226.032 0.849386 226.236 1.23075 226.46 1.52955C227.616 3.04322 228.996 4.30527 230.593 5.35107C231.556 5.98406 232.44 6.0509 233.353 5.29603C233.738 4.97757 234.174 4.71415 234.571 4.41142C237.052 2.51245 239.824 1.21896 242.843 0.448362C244.624 -0.00770393 246.437 -0.164968 248.261 0.161355C248.753 0.24785 249.252 0.373662 249.696 0.585968C251.029 1.21109 251.454 2.28835 250.994 3.69194C250.632 4.79672 249.975 5.69312 249.122 6.47158C246.405 8.97208 243.241 10.2774 239.667 10.0926ZM239.848 8.15824C242.729 8.07961 245.261 7.17141 247.412 5.25671C247.782 4.92646 248.147 4.56475 248.407 4.148C248.941 3.30664 248.544 2.30801 247.581 2.1075C246.979 1.98169 246.339 1.94237 245.725 1.98169C242.58 2.17827 239.804 3.42459 237.162 5.04441C236.95 5.17415 236.742 5.32355 236.573 5.50441C235.755 6.37329 236.081 7.52132 237.257 7.78081C238.11 7.96559 238.987 8.03243 239.848 8.15824Z" fill="#D5B584"/>
<path d="M305.521 15.4396C305.36 16.3439 304.774 16.8117 304.133 17.201C303.63 17.5076 303.056 17.6531 302.576 17.1853C302.388 17.0005 302.218 16.6073 302.289 16.3793C302.584 15.3964 303.842 14.6808 304.821 14.9246C305.081 14.9914 305.289 15.2627 305.521 15.4396Z" fill="#D5B584"/>
</g>
<defs>
<clipPath id="clip0_4425_5909">
<rect width="318" height="48.6222" fill="white"/>
</clipPath>
</defs>
</svg>
