<svg width="51" height="55" viewBox="0 0 51 55" fill="none" xmlns="http://www.w3.org/2000/svg">
<path d="M20.7899 8.31795C27.3232 4.58461 35.7232 6.79067 39.5414 13.324C44.802 22.3179 38.4384 33.7725 27.9172 33.9422L27.8323 35.2149L29.8687 37.421C30.0384 37.5907 30.1233 37.8452 30.1233 38.0149L29.8687 42.6816C29.8687 43.4452 28.9354 43.7846 28.4263 43.1907L26.7293 41.324L24.8626 43.021C24.2687 43.5301 23.4202 43.1058 23.4202 42.3422L23.6748 37.6755C23.6748 37.421 23.7596 37.2513 23.9293 37.0816L26.1354 35.0452L26.2202 33.7725C25.5414 33.6876 24.8626 33.6028 24.1839 33.4331C12.2202 30.2937 10.3536 14.427 20.7899 8.31795ZM25.3717 38.1846L25.2869 40.4755L26.2202 39.627C26.5596 39.2876 27.0687 39.3725 27.4081 39.7119L28.2566 40.6452L28.3414 38.3543L27.7475 37.6755V37.7604C27.7475 38.1846 27.3232 38.6089 26.899 38.6089C26.3899 38.6089 26.0505 38.1846 26.0505 37.7604V37.5907L25.3717 38.1846ZM26.8142 20.1967C26.8142 19.6876 27.2384 19.3482 27.6626 19.3482C28.1717 19.3482 28.5111 19.7725 28.5111 20.1967L28.4263 22.9967C30.3778 22.4876 31.2263 20.2816 30.2929 18.6695C29.4445 17.227 27.6626 16.8028 26.3051 17.5664C24.099 18.8392 24.4384 22.0634 26.8142 22.9119V20.1967ZM26.6445 24.7786C22.5717 23.8452 21.7232 18.3301 25.3717 16.2089C27.5778 14.9361 30.4626 15.6998 31.7354 17.9058C33.3475 20.7058 31.6505 24.3543 28.3414 24.8634L28.2566 27.4089C33.5172 26.9846 36.5717 21.2149 33.8566 16.7179C31.9051 13.324 27.4929 12.1361 24.099 14.0876C18.4142 17.3967 19.8566 26.221 26.5596 27.324L26.6445 24.7786ZM24.6081 31.821C25.202 31.9907 25.7111 32.0755 26.3051 32.1604L26.4748 28.9361C18.0748 27.7482 16.2081 16.7179 23.2505 12.5604C27.4929 10.0998 32.8384 11.5422 35.299 15.7846C38.6081 21.4695 34.7899 28.6816 28.0869 29.021L27.9172 32.2452C37.0808 31.9907 42.596 22.0634 38.0142 14.1725C34.7051 8.4028 27.2384 6.45128 21.5536 9.84522C12.4748 15.1058 14.1717 29.1058 24.6081 31.821Z" fill="#D5B584"/>
<path d="M0.171761 30.3785C4.75358 20.027 4.66873 20.3664 5.00813 18.4997C7.46873 5.68759 20.6202 -3.2215 34.7051 1.10577C51.2506 6.11183 56.1718 28.3421 42.5112 40.2209C38.5233 43.6997 36.2324 48.4512 36.2324 53.4573C36.2324 53.9664 35.893 54.3058 35.3839 54.3058H10.7778C10.2687 54.3058 9.92934 53.9664 9.92934 53.4573V41.7482H6.62025C5.51722 41.7482 4.58389 40.8149 4.58389 39.7118V33.7724C4.58389 33.6027 4.41418 33.433 4.24449 33.433H2.12328C0.596004 33.3482 -0.422176 31.8209 0.171761 30.3785ZM2.12328 31.6512H4.24449C5.34752 31.6512 6.28085 32.5846 6.28085 33.6876V39.627C6.28085 39.7967 6.45055 39.9664 6.62025 39.9664H10.7778C11.2869 39.9664 11.6263 40.3058 11.6263 40.8149V52.6088H34.5354C34.7899 47.433 37.2506 42.5118 41.3233 38.9482C53.8809 28.0876 49.6384 7.38456 34.196 2.71789C21.1293 -1.26998 8.99601 7.04517 6.7051 18.924C6.3657 20.7058 6.70509 19.8573 1.69904 31.1421C1.61419 31.3967 1.78388 31.6512 2.12328 31.6512Z" fill="#D5B584"/>
</svg>
