<svg width="51" height="55" viewBox="0 0 51 55" fill="none" xmlns="http://www.w3.org/2000/svg">
<path d="M20.7899 8.31746C27.3232 4.58412 35.7232 6.79019 39.5414 13.3235C44.802 22.3175 38.4384 33.772 27.9172 33.9417L27.8323 35.2144L29.8687 37.4205C30.0384 37.5902 30.1233 37.8447 30.1233 38.0144L29.8687 42.6811C29.8687 43.4447 28.9354 43.7841 28.4263 43.1902L26.7293 41.3235L24.8626 43.0205C24.2687 43.5296 23.4202 43.1053 23.4202 42.3417L23.6748 37.675C23.6748 37.4205 23.7596 37.2508 23.9293 37.0811L26.1354 35.0447L26.2202 33.772C25.5414 33.6872 24.8626 33.6023 24.1839 33.4326C12.2202 30.2932 10.3536 14.4265 20.7899 8.31746ZM25.3717 38.1841L25.2869 40.475L26.2202 39.6265C26.5596 39.2872 27.0687 39.372 27.4081 39.7114L28.2566 40.6447L28.3414 38.3538L27.7475 37.675V37.7599C27.7475 38.1841 27.3232 38.6084 26.899 38.6084C26.3899 38.6084 26.0505 38.1841 26.0505 37.7599V37.5902L25.3717 38.1841ZM26.8142 20.1962C26.8142 19.6872 27.2384 19.3478 27.6626 19.3478C28.1717 19.3478 28.5111 19.772 28.5111 20.1962L28.4263 22.9962C30.3778 22.4872 31.2263 20.2811 30.2929 18.669C29.4445 17.2265 27.6626 16.8023 26.3051 17.5659C24.099 18.8387 24.4384 22.0629 26.8142 22.9114V20.1962ZM26.6445 24.7781C22.5717 23.8447 21.7232 18.3296 25.3717 16.2084C27.5778 14.9356 30.4626 15.6993 31.7354 17.9053C33.3475 20.7053 31.6505 24.3538 28.3414 24.8629L28.2566 27.4084C33.5172 26.9841 36.5717 21.2144 33.8566 16.7175C31.9051 13.3235 27.4929 12.1356 24.099 14.0872C18.4142 17.3962 19.8566 26.2205 26.5596 27.3235L26.6445 24.7781ZM24.6081 31.8205C25.202 31.9902 25.7111 32.075 26.3051 32.1599L26.4748 28.9356C18.0748 27.7478 16.2081 16.7175 23.2505 12.5599C27.4929 10.0993 32.8384 11.5417 35.299 15.7841C38.6081 21.469 34.7899 28.6811 28.0869 29.0205L27.9172 32.2447C37.0808 31.9902 42.596 22.0629 38.0142 14.172C34.7051 8.40231 27.2384 6.45079 21.5536 9.84473C12.4748 15.1053 14.1717 29.1053 24.6081 31.8205Z" fill="#5B5B5B"/>
<path d="M0.171761 30.3785C4.75358 20.027 4.66873 20.3664 5.00813 18.4997C7.46873 5.68759 20.6202 -3.2215 34.7051 1.10577C51.2506 6.11183 56.1718 28.3421 42.5112 40.2209C38.5233 43.6997 36.2324 48.4512 36.2324 53.4573C36.2324 53.9664 35.893 54.3058 35.3839 54.3058H10.7778C10.2687 54.3058 9.92934 53.9664 9.92934 53.4573V41.7482H6.62025C5.51722 41.7482 4.58389 40.8149 4.58389 39.7118V33.7724C4.58389 33.6027 4.41418 33.433 4.24449 33.433H2.12328C0.596004 33.3482 -0.422176 31.8209 0.171761 30.3785ZM2.12328 31.6512H4.24449C5.34752 31.6512 6.28085 32.5846 6.28085 33.6876V39.627C6.28085 39.7967 6.45055 39.9664 6.62025 39.9664H10.7778C11.2869 39.9664 11.6263 40.3058 11.6263 40.8149V52.6088H34.5354C34.7899 47.433 37.2506 42.5118 41.3233 38.9482C53.8809 28.0876 49.6384 7.38456 34.196 2.71789C21.1293 -1.26998 8.99601 7.04517 6.7051 18.924C6.3657 20.7058 6.70509 19.8573 1.69904 31.1421C1.61419 31.3967 1.78388 31.6512 2.12328 31.6512Z" fill="#5B5B5B"/>
</svg>
