<svg width="58" height="58" viewBox="0 0 58 58" fill="none" xmlns="http://www.w3.org/2000/svg">
<g clip-path="url(#clip0_4425_5804)">
<path d="M49.2044 36.0416C50.6589 35.1398 52.1633 34.2064 52.6889 32.5933C53.1919 31.0481 52.5439 29.4441 51.9141 27.8944C51.4972 26.8612 51.0668 25.7919 51.0668 24.8992C51.0668 24.0066 51.4972 22.9372 51.9141 21.9041C52.5394 20.3544 53.1874 18.7503 52.6889 17.2006C52.1633 15.5875 50.6589 14.6541 49.2044 13.7523C48.2483 13.1588 47.3421 12.5969 46.8527 11.9262C46.3543 11.2375 46.096 10.1953 45.8196 9.09422C45.4118 7.44484 44.9858 5.73656 43.631 4.75328C42.2943 3.77906 40.5497 3.90141 38.8686 4.01922C37.7222 4.10078 36.6438 4.17328 35.8191 3.90594C35.0488 3.65672 34.2513 2.98156 33.4039 2.26562C32.1533 1.20531 30.726 0 28.9996 0C27.2732 0 25.8458 1.20531 24.5907 2.26562C23.7433 2.98156 22.9458 3.65672 22.1755 3.90594C21.3508 4.17328 20.2724 4.10078 19.126 4.01922C17.4404 3.90141 15.6958 3.77906 14.3636 4.75328C13.0088 5.73656 12.5874 7.44484 12.175 9.09422C11.9032 10.1998 11.6449 11.242 11.1419 11.9262C10.6525 12.5969 9.74629 13.1588 8.7902 13.7523C7.33567 14.6541 5.83129 15.5875 5.30567 17.2006C4.8027 18.7458 5.45067 20.3498 6.08051 21.8995C6.49739 22.9327 6.92786 23.9975 6.92786 24.8947C6.92786 25.7919 6.49739 26.8567 6.08051 27.8898C5.4552 29.4395 4.80723 31.0436 5.30567 32.5887C5.83129 34.2019 7.33567 35.1353 8.7902 36.037C9.74629 36.6306 10.6525 37.1925 11.1329 37.8541C11.16 37.8903 11.1827 37.9311 11.2054 37.9673L5.92192 51.5248C5.8177 51.7922 5.84489 52.0958 5.99895 52.3359C6.15301 52.5806 6.41129 52.7347 6.69676 52.7573L13.6205 53.2739L19.0671 57.5741C19.2302 57.7009 19.425 57.7689 19.629 57.7689C19.7105 57.7689 19.7875 57.7598 19.8646 57.7372C20.141 57.6602 20.3675 57.4608 20.4718 57.1934L24.3233 47.3108C24.4094 47.3833 24.4955 47.4558 24.5861 47.5283C25.8413 48.5886 27.2641 49.7939 28.995 49.7939C30.726 49.7939 32.1488 48.5886 33.4039 47.5283C33.4946 47.4512 33.5761 47.3833 33.6668 47.3108L37.5183 57.1934C37.6225 57.4608 37.8491 57.6647 38.1255 57.7372C38.2025 57.7598 38.2841 57.7689 38.3611 57.7689C38.5605 57.7689 38.7599 57.7009 38.923 57.5741L44.3696 53.2739L51.2933 52.7573C51.5788 52.7347 51.8371 52.5806 51.9911 52.3359C52.1452 52.0913 52.1724 51.7922 52.0682 51.5248L46.7893 37.9719C46.8119 37.9356 46.83 37.8994 46.8527 37.8677C47.3421 37.197 48.2483 36.6352 49.2044 36.0416ZM19.2347 55.3945L14.5313 51.6789C14.3908 51.5656 14.2186 51.4977 14.0374 51.4886L8.06067 51.04L12.1433 40.5637C12.1569 40.6136 12.166 40.6589 12.1796 40.7042C12.5874 42.3536 13.0133 44.0573 14.3636 45.0406C15.7004 46.0148 17.4404 45.8925 19.126 45.7747C20.2724 45.6931 21.3508 45.6206 22.1755 45.888C22.3749 45.9514 22.5879 46.0556 22.819 46.1916L19.2347 55.3945ZM28.9996 47.9905C27.9347 47.9905 26.8789 47.0978 25.7597 46.1508C25.3429 45.7973 24.9079 45.4303 24.4638 45.1041C24.4502 45.095 24.4366 45.0859 24.423 45.0769C23.8022 44.6328 23.2675 44.3428 22.7374 44.1661C22.0849 43.9531 21.3871 43.8897 20.6802 43.8897C20.1229 43.8897 19.5564 43.9305 19.0036 43.9667C17.5808 44.0664 16.235 44.1616 15.433 43.577C14.6174 42.9834 14.2911 41.6648 13.9422 40.2738C13.7111 39.3358 13.4665 38.3661 13.0496 37.5369C13.0496 37.5323 13.045 37.5278 13.0405 37.5233C13.036 37.5142 13.0315 37.5006 13.0269 37.4916C12.9136 37.265 12.7822 37.043 12.6146 36.8073C11.9168 35.8467 10.8157 35.167 9.75536 34.5055C8.52286 33.7397 7.35833 33.0192 7.04114 32.0405C6.74208 31.1252 7.24504 29.8881 7.77067 28.5786C8.25098 27.3869 8.75395 26.1498 8.75395 24.9037C8.75395 23.6577 8.25551 22.4206 7.77067 21.2289C7.24051 19.9194 6.74208 18.6823 7.04114 17.767C7.36286 16.7837 8.52286 16.0633 9.75989 15.2975C10.8247 14.6359 11.9213 13.9563 12.6191 12.9956C13.326 12.0214 13.6386 10.7572 13.9422 9.53375C14.2866 8.13813 14.6174 6.815 15.4375 6.22141C16.2396 5.63687 17.5854 5.73203 19.0082 5.83172C20.2769 5.92234 21.5865 6.01297 22.7465 5.63234C23.8521 5.27437 24.8263 4.44969 25.7733 3.65219C26.879 2.70516 27.9347 1.8125 28.9996 1.8125C30.0644 1.8125 31.1202 2.70516 32.2349 3.65219C33.1774 4.44969 34.1516 5.27437 35.2572 5.63234C36.4172 6.00844 37.7268 5.91781 38.9955 5.83172C40.4229 5.73203 41.7641 5.63687 42.5661 6.22141C43.3863 6.815 43.7125 8.13813 44.0569 9.53375C44.3605 10.7572 44.6732 12.0214 45.38 13.0002C46.0779 13.9608 47.179 14.6405 48.2393 15.302C49.4718 16.0678 50.6363 16.7883 50.9535 17.767C51.2525 18.6823 50.7496 19.9194 50.2239 21.2289C49.7436 22.4206 49.2407 23.6577 49.2407 24.9037C49.2407 26.1498 49.7391 27.3869 50.2239 28.5786C50.7541 29.8881 51.2525 31.1206 50.9535 32.0405C50.6318 33.0238 49.4718 33.7442 48.2393 34.51C47.1744 35.1716 46.0779 35.8512 45.371 36.8209C45.2124 37.0475 45.081 37.265 44.9722 37.487C44.9677 37.5006 44.9632 37.5097 44.9541 37.5233C44.9496 37.5323 44.945 37.5414 44.9405 37.5505C44.5236 38.3842 44.2835 39.3494 44.0479 40.2828C43.6989 41.6784 43.3727 42.997 42.5571 43.5906C41.755 44.1752 40.4093 44.08 38.9865 43.9803C37.7177 43.8897 36.4082 43.7991 35.2482 44.1797C34.7225 44.3519 34.1833 44.6419 33.5671 45.0859L33.5625 45.0905C33.549 45.0995 33.5399 45.1086 33.5263 45.1177C33.0822 45.4394 32.6518 45.8064 32.2304 46.1598C31.1202 47.0933 30.0644 47.9905 28.9996 47.9905ZM43.9618 51.4886C43.7805 51.5022 43.6083 51.5702 43.4679 51.6789L38.7644 55.3945L35.1757 46.1916C35.4068 46.0556 35.6197 45.9559 35.8191 45.8925C36.6438 45.6252 37.7222 45.6977 38.8686 45.7792C40.5543 45.897 42.2988 46.0194 43.631 45.0452C44.9813 44.0619 45.4072 42.3581 45.815 40.7087C45.8286 40.6589 45.8377 40.6136 45.8513 40.5683L49.9339 51.0445L43.9618 51.4886Z" fill="#D5B584"/>
<path d="M46.3674 24.8993C46.3674 15.3248 38.5782 7.53101 28.9991 7.53101C19.4201 7.53101 11.6309 15.3248 11.6309 24.8993C11.6309 34.4783 19.4201 42.2676 28.9991 42.2676C38.5782 42.2676 46.3674 34.4783 46.3674 24.8993ZM28.9991 40.4551C20.4215 40.4551 13.4434 33.4769 13.4434 24.8993C13.4434 16.3216 20.4215 9.34351 28.9991 9.34351C37.5768 9.34351 44.5549 16.3216 44.5549 24.8993C44.5549 33.4769 37.5768 40.4551 28.9991 40.4551Z" fill="#D5B584"/>
<path d="M37.5179 20.0734L33.3491 19.4662C33.1769 19.4435 33.0319 19.3348 32.9549 19.1807L31.0926 15.4062C30.6983 14.6042 29.8918 14.1057 28.9991 14.1057C28.1065 14.1057 27.2999 14.6042 26.9057 15.4062L25.0433 19.1807C24.9663 19.3348 24.8213 19.4435 24.6491 19.4662L20.4804 20.0734C19.5922 20.2002 18.8718 20.812 18.5954 21.6638C18.319 22.5157 18.5455 23.431 19.1844 24.0563L22.2022 26.9971C22.3246 27.1149 22.379 27.2916 22.3518 27.4593L21.6404 31.6099C21.4908 32.4935 21.8443 33.3681 22.5693 33.8937C23.2943 34.4193 24.2368 34.4873 25.0297 34.0704L28.7544 32.1129C28.9085 32.0313 29.0897 32.0313 29.2393 32.1129L32.9685 34.0704C33.3129 34.2517 33.6844 34.3423 34.056 34.3423C34.5363 34.3423 35.0166 34.1927 35.4244 33.8937C36.1494 33.3681 36.5029 32.4935 36.3533 31.6099L35.6419 27.4593C35.6147 27.2871 35.6691 27.1149 35.7915 26.9971L38.8047 24.0563C39.4482 23.431 39.6702 22.5157 39.3938 21.6638C39.1265 20.812 38.4015 20.2048 37.5179 20.0734ZM37.5451 22.7604L34.5318 25.7012C33.979 26.2359 33.7297 27.0107 33.8612 27.7674L34.5726 31.9181C34.6224 32.2081 34.4457 32.3712 34.3641 32.4301C34.2826 32.489 34.0741 32.6068 33.8158 32.4709L30.0866 30.5134C29.7468 30.3367 29.3752 30.246 28.9991 30.246C28.6276 30.246 28.2515 30.3367 27.9116 30.5134L24.1824 32.4709C23.9241 32.6068 23.7112 32.489 23.6341 32.4301C23.5571 32.3712 23.3758 32.2081 23.4257 31.9181L24.1371 27.7674C24.2685 27.0107 24.0147 26.2359 23.4665 25.7012L20.4532 22.7604C20.2447 22.5565 20.2901 22.3163 20.3218 22.2257C20.3535 22.1306 20.4532 21.9131 20.7432 21.8677L24.9119 21.2606C25.6732 21.1518 26.3302 20.6715 26.6701 19.9827L28.5324 16.2082C28.6638 15.9454 28.904 15.9182 28.9991 15.9182C29.0943 15.9182 29.339 15.9454 29.4658 16.2082L31.3282 19.9827C31.668 20.6715 32.3251 21.1473 33.0863 21.2606L37.2551 21.8677C37.5451 21.9085 37.6447 22.1306 37.6765 22.2257C37.7082 22.3163 37.758 22.5565 37.5451 22.7604Z" fill="#D5B584"/>
</g>
<defs>
<clipPath id="clip0_4425_5804">
<rect width="58" height="58" fill="white"/>
</clipPath>
</defs>
</svg>
