<svg width="58" height="59" viewBox="0 0 58 59" fill="none" xmlns="http://www.w3.org/2000/svg">
<path d="M44.06 33.51C44.04 33.42 44.08 33.32 44.14 33.25L55.63 22.05C56.26 21.44 56.48 20.54 56.21 19.7C55.94 18.86 55.23 18.26 54.36 18.14L38.48 15.83C38.38 15.82 38.3 15.76 38.26 15.67L31.16 1.28C30.77 0.490001 29.98 0 29.1 0C28.22 0 27.43 0.490001 27.04 1.28L19.94 15.67C19.9 15.76 19.82 15.82 19.72 15.83L3.84 18.14C2.97 18.27 2.26 18.87 1.99 19.7C1.72 20.53 1.94 21.44 2.57 22.05L14.06 33.25C14.13 33.32 14.16 33.42 14.14 33.51L11.43 49.32C11.06 51.12 13.15 52.66 14.76 51.74L28.96 44.27C29.04 44.22 29.15 44.23 29.23 44.27L43.43 51.74C44.21 52.15 45.13 52.08 45.85 51.56C46.56 51.04 46.91 50.18 46.76 49.32L44.05 33.51H44.06ZM44.69 49.95C44.62 50 44.52 50.04 44.38 49.97L30.18 42.5C29.51 42.15 28.72 42.15 28.04 42.5L13.84 49.97C13.6 50.11 13.38 49.88 13.41 49.66L16.12 33.85C16.25 33.11 16 32.35 15.46 31.82L3.97 20.62C3.78 20.42 3.89 20.18 4.13 20.12L20.01 17.81C20.76 17.7 21.4 17.23 21.74 16.56L28.84 2.17C28.91 2.03 29.02 2.01 29.1 2.01C29.18 2.01 29.3 2.04 29.36 2.17L36.46 16.56C36.79 17.24 37.44 17.71 38.19 17.81L54.07 20.12C54.33 20.17 54.4 20.43 54.23 20.62L42.74 31.82C42.2 32.35 41.95 33.11 42.08 33.85L44.79 49.66C44.82 49.81 44.74 49.9 44.67 49.95H44.69ZM40.01 22.07L33.44 21.12L30.5 15.17C30.24 14.64 29.7 14.3 29.11 14.3C28.52 14.3 27.98 14.63 27.72 15.17L24.78 21.12L18.21 22.07C17.62 22.16 17.14 22.56 16.96 23.13C16.78 23.7 16.93 24.31 17.35 24.72L22.1 29.35L20.98 35.89C20.88 36.48 21.12 37.06 21.6 37.41C22.08 37.76 22.71 37.8 23.23 37.53L29.11 34.44L34.99 37.53C35.52 37.81 36.14 37.76 36.63 37.41C37.11 37.06 37.35 36.48 37.25 35.89L36.13 29.35L40.88 24.72C41.8 23.88 41.26 22.21 40.02 22.07H40.01ZM34.56 28.09C34.19 28.45 34.02 28.96 34.11 29.47L35.12 35.35L29.84 32.57C29.39 32.33 28.85 32.33 28.4 32.57L23.12 35.35L24.13 29.46C24.21 28.96 24.05 28.44 23.68 28.09L19.4 23.92L25.31 23.06C25.82 22.99 26.26 22.67 26.48 22.21L29.12 16.86L31.76 22.21C31.99 22.67 32.42 22.98 32.93 23.06L38.84 23.92L34.57 28.09H34.56ZM14.49 14.23C17.5 14.23 19.95 11.78 19.95 8.77C19.69 1.54 9.28 1.54 9.02 8.77C9.02 11.78 11.47 14.23 14.48 14.23H14.49ZM14.49 5.3C19.07 5.45 19.07 12.08 14.49 12.23C9.91 12.08 9.91 5.45 14.49 5.3ZM43.21 14.23C46.22 14.23 48.67 11.78 48.67 8.77C48.41 1.54 38 1.54 37.74 8.77C37.74 11.78 40.19 14.23 43.2 14.23H43.21ZM43.21 5.3C47.79 5.45 47.79 12.08 43.21 12.23C38.63 12.08 38.63 5.45 43.21 5.3ZM28.85 47.4C25.84 47.4 23.39 49.85 23.39 52.86C23.65 60.09 34.06 60.09 34.32 52.86C34.32 49.85 31.87 47.4 28.86 47.4H28.85ZM28.85 56.33C24.27 56.18 24.27 49.55 28.85 49.4C33.43 49.55 33.43 56.18 28.85 56.33ZM5.46 30.61C2.45 30.61 0 33.06 0 36.07C0.26 43.3 10.67 43.3 10.93 36.07C10.93 33.06 8.48 30.61 5.47 30.61H5.46ZM5.46 39.54C0.88 39.39 0.88 32.76 5.46 32.61C10.04 32.76 10.04 39.39 5.46 39.54ZM52.24 30.61C49.23 30.61 46.78 33.06 46.78 36.07C47.04 43.3 57.45 43.3 57.71 36.07C57.71 33.06 55.26 30.61 52.25 30.61H52.24ZM52.24 39.54C47.66 39.39 47.66 32.76 52.24 32.61C56.82 32.76 56.82 39.39 52.24 39.54Z" fill="#5B5B5B"/>
</svg>
